<?xml version="1.0" encoding="UTF-8" standalone="no"?>
<!-- Created with Inkscape (http://www.inkscape.org/) -->

<svg
   xmlns:dc="http://purl.org/dc/elements/1.1/"
   xmlns:cc="http://creativecommons.org/ns#"
   xmlns:rdf="http://www.w3.org/1999/02/22-rdf-syntax-ns#"
   xmlns:svg="http://www.w3.org/2000/svg"
   xmlns="http://www.w3.org/2000/svg"
   xmlns:sodipodi="http://sodipodi.sourceforge.net/DTD/sodipodi-0.dtd"
   xmlns:inkscape="http://www.inkscape.org/namespaces/inkscape"
   width="500"
   height="150"
   id="svg2993"
   version="1.1"
   inkscape:version="0.48.2 r9819"
   sodipodi:docname="New document 3">
  <defs
     id="defs2995" />
  <sodipodi:namedview
     id="base"
     pagecolor="#ffffff"
     bordercolor="#666666"
     borderopacity="1.0"
     inkscape:pageopacity="0.0"
     inkscape:pageshadow="2"
     inkscape:zoom="4.2426407"
     inkscape:cx="130.93139"
     inkscape:cy="77.302971"
     inkscape:document-units="px"
     inkscape:current-layer="layer6"
     showgrid="false"
     inkscape:window-width="1680"
     inkscape:window-height="964"
     inkscape:window-x="-4"
     inkscape:window-y="-4"
     inkscape:window-maximized="1" />
  <metadata
     id="metadata2998">
    <rdf:RDF>
      <cc:Work
         rdf:about="">
        <dc:format>image/svg+xml</dc:format>
        <dc:type
           rdf:resource="http://purl.org/dc/dcmitype/StillImage" />
        <dc:title></dc:title>
      </cc:Work>
    </rdf:RDF>
  </metadata>
  <g
     id="layer1"
     inkscape:label="Swing Set"
     inkscape:groupmode="layer"
     transform="translate(0,60)"
     style="display:inline">
    <text
       xml:space="preserve"
       style="font-size:48px;font-style:normal;font-variant:normal;font-weight:normal;font-stretch:normal;line-height:125%;letter-spacing:0px;word-spacing:0px;fill:#000000;fill-opacity:1;stroke:none;font-family:Comic Sans MS;-inkscape-font-specification:Comic Sans MS"
       x="23.570227"
       y="10.332636"
       id="text3001"
       sodipodi:linespacing="125%"><tspan
         sodipodi:role="line"
         id="tspan3003"
         x="23.570227"
         y="10.332636"
         style="line-height:0%;letter-spacing:0px;fill:#483578;fill-opacity:1" /></text>
    <path
       style="fill:none;stroke:#000000;stroke-width:0.85460001;stroke-linecap:butt;stroke-linejoin:miter;stroke-miterlimit:4;stroke-opacity:1;stroke-dasharray:none"
       d="m 81.052983,-9.466354 0,13.670731 9.640011,-0.471404 0,-13.670732"
       id="path3871"
       inkscape:connector-curvature="0" />
    <path
       style="fill:none;stroke:#000000;stroke-width:2.20000005;stroke-linecap:butt;stroke-linejoin:miter;stroke-miterlimit:4;stroke-opacity:1;stroke-dasharray:none"
       d="M 72.596296,50.533646 64.111015,69.861231"
       id="path3873"
       inkscape:connector-curvature="0"
       transform="translate(0,-60)" />
    <path
       style="fill:none;stroke:#000000;stroke-width:2.20000005;stroke-linecap:butt;stroke-linejoin:miter;stroke-miterlimit:4;stroke-opacity:1;stroke-dasharray:none"
       d="M 116.43692,-10.409164 125.3936,10.80404"
       id="path3875"
       inkscape:connector-curvature="0"
       inkscape:transform-center-x="-5.57834" />
    <path
       sodipodi:type="arc"
       style="fill:none;stroke-width:2.20000005;stroke-miterlimit:4;stroke-dasharray:none"
       id="path3877"
       sodipodi:cx="100.17346"
       sodipodi:cy="102.62385"
       sodipodi:rx="6.3639612"
       sodipodi:ry="6.3639612"
       d="m 106.53742,102.62385 a 6.3639612,6.3639612 0 1 1 -12.727919,0 6.3639612,6.3639612 0 1 1 12.727919,0 z"
       transform="translate(0,-60)" />
    <path
       sodipodi:type="arc"
       style="fill:none;stroke:#000000;stroke-width:2.20000005;stroke-miterlimit:4;stroke-opacity:1;stroke-dasharray:none"
       id="path3889"
       sodipodi:cx="121.38667"
       sodipodi:cy="113.23045"
       sodipodi:rx="9.1923885"
       sodipodi:ry="9.8994951"
       d="m 130.57906,113.23045 a 9.1923885,9.8994951 0 1 1 -18.38478,0 9.1923885,9.8994951 0 1 1 18.38478,0 z"
       transform="matrix(0.20708418,0,0,0.26372101,77.275382,-32.845785)" />
    <path
       sodipodi:type="arc"
       style="fill:none;stroke:#000000;stroke-width:2.20000005;stroke-miterlimit:4;stroke-opacity:1;stroke-dasharray:none"
       id="path3889-5"
       sodipodi:cx="121.38667"
       sodipodi:cy="113.23045"
       sodipodi:rx="9.1923885"
       sodipodi:ry="9.8994951"
       d="m 130.57906,113.23045 a 9.1923885,9.8994951 0 1 1 -18.38478,0 9.1923885,9.8994951 0 1 1 18.38478,0 z"
       transform="matrix(0.20708418,0,0,0.26372101,84.22859,-32.72794)" />
    <path
       style="fill:none;stroke:#000000;stroke-width:1px;stroke-linecap:butt;stroke-linejoin:miter;stroke-opacity:1"
       d="m 102.05908,54.06918 -0.2357,-4.242641 0.2357,0.471405"
       id="path3917"
       inkscape:connector-curvature="0"
       transform="translate(0,-60)" />
    <path
       style="fill:none;stroke:#000000;stroke-width:1px;stroke-linecap:butt;stroke-linejoin:miter;stroke-opacity:1"
       d="m 109.36585,53.833478 -0.2357,-5.892557"
       id="path3919"
       inkscape:connector-curvature="0"
       transform="translate(0,-60)" />
    <path
       style="fill:none;stroke:#000000;stroke-width:2;stroke-linecap:butt;stroke-linejoin:miter;stroke-miterlimit:4;stroke-opacity:1;stroke-dasharray:none"
       d="m 107.00883,47.940921 6.59966,0"
       id="path3921"
       inkscape:connector-curvature="0"
       transform="translate(0,-60)" />
    <path
       style="fill:none;stroke:#000000;stroke-width:2;stroke-linecap:butt;stroke-linejoin:miter;stroke-miterlimit:4;stroke-opacity:1;stroke-dasharray:none"
       d="m 83.674303,48.176623 4.949747,0.235703"
       id="path3923"
       inkscape:connector-curvature="0"
       transform="translate(0,-60)" />
  </g>
  <g
     inkscape:groupmode="layer"
     id="layer6"
     inkscape:label="grass">
    <path
       style="fill:#008000;fill-opacity:1;fill-rule:evenodd;stroke:none"
       id="path4006"
       d="m 18.111156,63.883688 c 0.801658,0.04869 1.571087,-0.154077 2.333434,-0.369631 0.954541,-0.310218 1.940523,-0.521983 2.923163,-0.723692 1.10129,-0.207327 2.183276,-0.487426 3.292972,-0.653752 0.823995,-0.09741 1.65312,-0.125235 2.481982,-0.135381 0.741641,-0.0045 1.483276,0.0048 2.22492,0.0073 0.849788,7.49e-4 1.699565,0.0025 2.549356,0.0033 1.126085,-0.0025 2.252159,0.01066 3.378198,0.01986 1.551476,0.009 3.10301,-7e-6 4.65448,-0.0074 1.077481,-0.0024 2.154964,-0.0065 3.232433,-0.01224 1.061177,0.03198 2.119423,0.14115 3.181451,0.188009 0.866646,0.05203 1.736441,-0.0075 2.597415,0.121696 0.04522,0.0068 1.277355,0.236599 1.319217,0.244393 1.026502,0.184461 2.06245,0.296773 3.081118,0.523741 1.189352,0.368361 2.321666,0.874791 3.452741,1.387782 1.241769,0.660345 2.467218,1.350168 3.717292,1.994649 0.853006,0.455849 1.724479,0.877747 2.630875,1.215969 0.941263,0.477078 1.954947,0.746033 2.96576,1.024015 0.862884,0.263005 1.729705,0.499628 2.583655,0.791716 1.222916,0.440798 2.464877,0.834642 3.718741,1.178761 1.48803,0.336977 3.003052,0.540012 4.522338,0.667705 1.735186,0.100104 3.473216,0.122673 5.209711,0.197424 1.475948,0.06797 2.952953,0.106381 4.430244,0.126983 1.180763,0.009 2.361574,0.01125 3.542366,0.0136 1.274676,0.0017 2.549348,-0.0022 3.824025,-0.0014 1.423112,-0.0039 2.846192,0.0081 4.269297,0.01053 1.3137,0.0049 2.6273,-0.01302 3.94095,-0.01893 1.11809,-0.0061 2.23612,0.0074 3.35417,0.01259 1.84862,-0.03941 3.68793,0.176533 5.52969,0.306599 1.80737,0.127168 3.61948,0.153016 5.43059,0.165843 1.35746,0.0051 2.71498,0.002 4.07242,-0.0062 1.19239,-0.01222 2.38476,8.49e-4 3.57713,0.008 1.74092,0.05955 3.47148,0.03382 5.18949,-0.26693 1.08163,-0.234273 2.11158,-0.622012 3.1324,-1.040545 0.45418,-0.220307 0.93768,-0.385548 1.38995,-0.609231 0.43315,-0.214226 0.82469,-0.458694 1.27333,-0.64621 1.18133,-0.505002 2.39852,-0.899513 3.61863,-1.297618 1.09648,-0.356168 2.19656,-0.700384 3.28865,-1.069925 1.07708,-0.413991 2.16984,-0.78692 3.24417,-1.206789 1.08482,-0.505971 2.2283,-0.879183 3.39055,-1.159375 1.37885,-0.251612 2.78997,-0.23155 4.1857,-0.33309 2.05409,-0.188858 4.09937,-0.455875 6.14782,-0.695656 0.96528,-0.130383 1.93664,-0.175473 2.90954,-0.181594 1.19162,6.08e-4 2.38331,-0.0068 3.57356,0.05343 2.08984,0.02997 4.11776,0.547701 6.1526,0.96611 3.23755,0.697301 6.50219,1.243796 9.73381,1.968819 3.08694,0.79113 5.84708,2.416825 8.74116,3.695265 1.4673,0.702377 3.06882,0.983044 4.65981,1.244036 2.07903,0.631646 4.22513,0.90677 6.37395,1.165969 1.72131,0.1982 3.45151,0.297601 5.17924,0.420574 1.47324,0.186119 2.92175,0.517454 4.39184,0.726746 0.73471,0.10718 1.47668,0.127728 2.21777,0.135027 0.96825,0.01129 1.93655,0.0089 2.90482,0.0026 0.69417,0.007 1.37992,0.0051 2.06637,-0.097 0.76539,-0.274597 1.50391,-0.609983 2.25814,-0.912502 0.7928,-0.384641 1.5193,-0.648283 2.39195,-0.777856 1.03167,-0.06261 2.04217,-0.327249 3.02768,-0.628562 0.679,-0.214903 1.37562,-0.375082 2.0492,-0.606365 0.87138,-0.393909 1.84391,-0.396791 2.78175,-0.447125 1.12557,-0.06037 2.25275,-0.07037 3.37964,-0.06993 1.07027,0.003 2.14058,-7.56e-4 3.21084,0.0041 1.45765,0.01319 2.91527,0.01995 4.37296,0.01114 1.07928,-0.0096 2.15852,-0.01469 3.23783,-0.01099 1.09426,0.0037 2.18854,-2.13e-4 3.28281,0.0015 0.90841,-0.0017 1.81681,-0.0077 2.72522,-0.0088 1.02776,-0.03116 2.05023,0.05424 3.07416,0.126646 0.7879,0.04647 0.39826,0.02619 1.1689,0.06118 0,0 -2.78078,1.998948 -2.78078,1.998948 l 0,0 c -0.76919,-0.04296 -0.37868,-0.02067 -1.17155,-0.06695 -1.02919,-0.06903 -2.05686,-0.121995 -3.0889,-0.08683 -0.9003,-0.0012 -1.80059,-0.0072 -2.70089,-0.0088 -1.09565,0.0017 -2.1913,-0.0022 -3.28694,0.0015 -1.06922,0.0037 -2.13836,-0.0011 -3.20753,-0.01106 -1.46689,-0.0093 -2.93369,-0.002 -4.40055,0.0085 -1.07033,0.0025 -2.14068,-0.006 -3.21103,-0.0025 -1.11639,0.0058 -2.23355,0.0084 -3.34844,0.07376 -0.95367,0.07352 -1.89918,0.170301 -2.78677,0.55387 -0.67622,0.192601 -1.34999,0.393018 -2.02811,0.579025 -1.00512,0.267898 -2.01812,0.507037 -3.0559,0.605296 -0.82287,0.170148 -1.58133,0.496201 -2.34729,0.836276 -0.76282,0.318405 -1.52248,0.675824 -2.33225,0.855745 -0.68687,0.07527 -1.376,0.04233 -2.06594,0.04249 -0.97482,-0.0024 -1.94957,0.004 -2.92437,0.0047 -0.74447,-0.0137 -1.48724,-0.05097 -2.22037,-0.193707 -1.44022,-0.251687 -2.86599,-0.59913 -4.3234,-0.738893 -1.72021,-0.117919 -3.44186,-0.221673 -5.15073,-0.462866 -1.13111,-0.143994 -2.26476,-0.271249 -3.38682,-0.477625 -1.20011,-0.220729 -0.93186,-0.199159 -2.0767,-0.462134 -0.31864,-0.07319 -0.63907,-0.138342 -0.9586,-0.207513 -1.61029,-0.257741 -3.2125,-0.577388 -4.66991,-1.348413 -2.8048,-1.372545 -5.52359,-2.995818 -8.59751,-3.707111 -3.2504,-0.711346 -6.52911,-1.269064 -9.79187,-1.920038 -2.05507,-0.396692 -4.11057,-0.838902 -6.21359,-0.857787 -1.20548,-0.0286 -2.41119,-0.01147 -3.6169,-2.04e-4 -0.94805,0.0217 -1.89507,0.06861 -2.83851,0.168981 -2.04049,0.203419 -4.07521,0.459261 -6.11604,0.65984 -1.41137,0.119868 -2.84411,0.123328 -4.23011,0.439102 -1.14142,0.308344 -2.2636,0.67652 -3.33991,1.171043 -1.08956,0.413918 -2.18232,0.820245 -3.27894,1.215175 -1.08355,0.362343 -2.17903,0.68731 -3.26371,1.046234 -1.22756,0.398145 -2.44236,0.825071 -3.62346,1.348254 -0.88423,0.425719 -1.74537,0.899615 -2.66858,1.241999 -1.02488,0.403324 -2.06269,0.77709 -3.15373,0.959373 -1.72995,0.239899 -3.46721,0.219084 -5.21064,0.216974 -1.20164,0.0076 -2.40327,0.02162 -3.60495,0.01252 -1.34612,-0.0059 -2.69228,-0.0055 -4.03832,-0.02375 -1.8094,-0.02874 -3.61944,-0.07027 -5.42512,-0.196553 -1.84624,-0.150905 -3.69367,-0.327937 -5.54864,-0.261311 -1.12961,0.0052 -2.25919,0.01856 -3.38882,0.01258 -1.29628,-0.0059 -2.592505,-0.02406 -3.88883,-0.01893 -1.433018,0.0025 -2.866007,0.01437 -4.29903,0.01117 -1.274773,0.0015 -2.549544,-0.0011 -3.824315,0.0015 -1.182945,0.0023 -2.366008,0.0074 -3.5488,-0.01612 -1.460746,-0.02944 -2.919651,-0.100594 -4.378707,-0.175192 -1.753517,-0.07692 -3.509287,-0.05432 -5.260298,-0.181235 -1.528206,-0.152839 -3.054584,-0.362571 -4.549053,-0.723231 -1.266653,-0.356342 -2.53043,-0.728224 -3.773066,-1.16147 -0.853679,-0.271882 -1.716173,-0.512379 -2.570934,-0.780617 -1.018302,-0.286752 -2.025709,-0.600209 -2.988473,-1.045783 -0.910709,-0.347398 -1.778697,-0.793479 -2.62986,-1.267252 -1.232602,-0.659987 -2.44463,-1.358575 -3.694431,-1.986277 -1.119712,-0.509357 -2.258189,-0.984644 -3.45036,-1.299453 -1.009614,-0.20328 -2.028713,-0.347796 -3.040317,-0.540335 -0.33835,-0.0606 -0.96283,-0.177718 -1.307216,-0.218739 -0.859226,-0.102345 -1.727073,-0.0486 -2.589125,-0.105295 -1.067559,-0.05028 -2.133688,-0.143016 -3.202337,-0.153607 -1.06624,-0.0057 -2.132494,-0.0098 -3.198746,-0.01223 -1.544676,-0.0075 -3.089415,-0.01637 -4.634097,-0.0074 -1.144198,0.0092 -2.288436,0.02237 -3.432679,0.01959 -0.850984,2.8e-4 -1.701968,0.0014 -2.552945,-0.0014 -0.744419,-5.1e-4 -1.488823,7.42e-4 -2.233233,0.0053 -0.812125,0.01187 -1.626001,0.04009 -2.43084,0.157528 -1.099623,0.174431 -2.175365,0.456197 -3.269357,0.66003 -0.987718,0.216332 -1.971756,0.451398 -2.935858,0.758443 -0.792282,0.209297 -1.599698,0.329647 -2.421626,0.319687 0,0 2.829279,-2.055592 2.829279,-2.055592 z"
       inkscape:connector-curvature="0" />
    <path
       style="fill:#008000;fill-opacity:1;fill-rule:evenodd;stroke:none"
       id="path4008"
       d="m 256.62893,70.351296 c 1.17692,-0.279491 2.38392,-0.397093 3.58823,-0.479645 1.09673,-0.07038 2.1962,-0.08143 3.29485,-0.08303 1.14918,0.01974 2.2988,-0.05444 3.44165,-0.171255 1.35794,-0.09428 2.69042,-0.371719 4.03673,-0.560105 1.30489,-0.159783 2.62131,-0.184333 3.93437,-0.193611 1.28587,-0.01021 2.57164,-0.01278 3.85753,-0.008 1.38583,0.0061 2.77166,0.0062 4.15749,0.0063 1.41433,8.58e-4 2.82865,-0.0011 4.24298,0.0021 1.8322,-0.03503 3.65773,0.185388 5.48072,0.348598 2.48042,0.155729 4.94746,0.455322 7.4251,0.645832 2.43974,0.144046 4.87563,0.344029 7.3149,0.494962 2.12556,0.12828 4.25507,0.15088 6.3837,0.175322 2.67618,-0.07047 5.33666,0.180367 8.00025,0.392638 2.67167,0.249921 5.34367,0.500303 7.99864,0.893324 2.02332,0.336478 4.0273,0.790245 6.00636,1.327305 2.073,0.651447 4.18529,1.15869 6.23093,1.894951 2.04928,0.779245 3.98578,1.814863 5.8852,2.902063 1.98141,1.219496 4.04968,2.275827 6.18308,3.19976 1.18961,0.511337 2.41717,0.903408 3.70059,1.078205 0.63583,0.06713 1.27542,0.07458 1.91404,0.07838 0,0 -2.79774,2.025034 -2.79774,2.025034 l 0,0 c -0.64469,-0.01933 -1.29024,-0.04262 -1.93069,-0.124766 -1.27697,-0.22618 -2.49709,-0.661542 -3.67377,-1.204824 -2.11397,-0.967627 -4.16463,-2.060419 -6.16112,-3.252361 -1.90154,-1.063536 -3.84533,-2.06423 -5.88712,-2.833153 -2.03931,-0.732062 -4.13885,-1.258893 -6.21576,-1.871287 -1.96643,-0.51648 -3.9515,-0.970605 -5.95526,-1.317544 -2.63842,-0.401321 -5.29375,-0.663797 -7.95167,-0.899255 -2.67665,-0.220861 -5.35277,-0.425918 -8.04158,-0.333582 -2.12526,-0.01284 -4.25065,-0.06446 -6.37164,-0.206894 -2.44099,-0.165396 -4.88066,-0.348098 -7.3228,-0.496263 -2.47544,-0.215758 -4.94422,-0.50206 -7.42555,-0.646441 -1.84105,-0.145667 -3.68554,-0.311066 -5.53381,-0.275644 -1.41606,0.0032 -2.83212,0.0013 -4.24818,0.0015 -1.38917,-6.36e-4 -2.77833,-0.0018 -4.16749,5.03e-4 -1.28166,0.0014 -2.56334,-0.0081 -3.84493,0.0052 -1.30762,0.02679 -2.6185,0.05301 -3.91609,0.233642 -1.34758,0.192112 -2.6855,0.453795 -4.04556,0.547951 -1.1582,0.105295 -2.31996,0.186266 -3.48376,0.162777 -1.08611,0.006 -2.173,0.01063 -3.2571,0.08547 -1.20994,0.09744 -2.43882,0.20604 -3.59278,0.606297 0,0 2.74706,-2.150538 2.74706,-2.150538 z"
       inkscape:connector-curvature="0" />
  </g>
  <g
     inkscape:groupmode="layer"
     id="layer4"
     inkscape:label="Sun">
    <path
       sodipodi:type="arc"
       style="fill:#ffff00;fill-opacity:1;fill-rule:evenodd;stroke:none"
       id="path3934"
       sodipodi:cx="337.28995"
       sodipodi:cy="45.230347"
       sodipodi:rx="16.499159"
       sodipodi:ry="16.381308"
       d="m 353.78911,45.230347 a 16.499159,16.381308 0 1 1 -32.99832,0 16.499159,16.381308 0 1 1 32.99832,0 z"
       transform="translate(-32.998316,-10.606602)" />
    <path
       style="fill:none;stroke:#000000;stroke-width:1px;stroke-linecap:butt;stroke-linejoin:miter;stroke-opacity:1"
       d="M 292.97791,33.563083"
       id="path3962"
       inkscape:connector-curvature="0" />
    <path
       style="fill:none;stroke:#ffff00;stroke-width:1px;stroke-linecap:butt;stroke-linejoin:miter;stroke-opacity:1"
       d="m 288.73527,39.45564 -9.8995,4.714045"
       id="path3964"
       inkscape:connector-curvature="0" />
    <path
       style="fill:none;stroke:#ffff00;stroke-width:1px;stroke-linecap:butt;stroke-linejoin:miter;stroke-opacity:1"
       d="m 288.26386,30.263252 -9.89949,-3.06413"
       id="path3966"
       inkscape:connector-curvature="0" />
    <path
       style="fill:none;stroke:#ffff00;stroke-width:1px;stroke-linecap:butt;stroke-linejoin:miter;stroke-opacity:1"
       d="M 293.21361,23.192184 285.19974,14.4712"
       id="path3968"
       inkscape:connector-curvature="0" />
    <path
       style="fill:none;stroke:#ffff00;stroke-width:1px;stroke-linecap:butt;stroke-linejoin:miter;stroke-opacity:1"
       d="M 304.05592,18.713841 303.82021,9.9928571"
       id="path3970"
       inkscape:connector-curvature="0" />
    <path
       style="fill:none;stroke:#ffff00;stroke-width:1px;stroke-linecap:butt;stroke-linejoin:miter;stroke-opacity:1"
       d="m 304.76302,50.533646 0,9.899495"
       id="path3972"
       inkscape:connector-curvature="0" />
    <path
       style="fill:none;stroke:#ffff00;stroke-width:1px;stroke-linecap:butt;stroke-linejoin:miter;stroke-opacity:1"
       d="m 294.86353,48.412326 -5.18545,4.478343"
       id="path3974"
       inkscape:connector-curvature="0" />
    <path
       style="fill:none;stroke:#ffff00;stroke-width:1px;stroke-linecap:butt;stroke-linejoin:miter;stroke-opacity:1"
       d="m 313.2483,20.128054 5.42116,-6.363961"
       id="path3976"
       inkscape:connector-curvature="0" />
    <path
       style="fill:none;stroke:#ffff00;stroke-width:1px;stroke-linecap:butt;stroke-linejoin:miter;stroke-opacity:1"
       d="m 319.37656,26.96342 7.54248,-5.656854"
       id="path3978"
       inkscape:connector-curvature="0" />
    <path
       style="fill:none;stroke:#ffff00;stroke-width:1px;stroke-linecap:butt;stroke-linejoin:miter;stroke-opacity:1"
       d="m 321.26218,35.684403 9.42809,-1.649915"
       id="path3980"
       inkscape:connector-curvature="0" />
    <path
       style="fill:none;stroke:#ffff00;stroke-width:1px;stroke-linecap:butt;stroke-linejoin:miter;stroke-opacity:1"
       d="m 318.43376,42.519769 7.77817,6.363961"
       id="path3982"
       inkscape:connector-curvature="0" />
    <path
       style="fill:none;stroke:#ffff00;stroke-width:1px;stroke-linecap:butt;stroke-linejoin:miter;stroke-opacity:1"
       d="m 312.3055,48.176624 8.01387,7.071068"
       id="path3984"
       inkscape:connector-curvature="0" />
  </g>
  <g
     inkscape:groupmode="layer"
     id="layer3"
     inkscape:label="Little Ewoks"
     style="display:inline">
    <text
       xml:space="preserve"
       style="font-size:48px;font-style:normal;font-variant:normal;font-weight:normal;font-stretch:normal;line-height:125%;letter-spacing:0px;word-spacing:0px;fill:#483564;fill-opacity:1;stroke:none;font-family:Comic Sans MS;-inkscape-font-specification:Comic Sans MS"
       x="23.570225"
       y="70.568336"
       id="text3929"
       sodipodi:linespacing="125%"><tspan
         sodipodi:role="line"
         id="tspan3931"
         x="23.570225"
         y="70.568336">Little   Ewoks</tspan></text>
  </g>
</svg>
