<?xml version="1.0" encoding="UTF-8" standalone="no"?>
<!-- Created with Inkscape (http://www.inkscape.org/) -->

<svg
   xmlns:dc="http://purl.org/dc/elements/1.1/"
   xmlns:cc="http://creativecommons.org/ns#"
   xmlns:rdf="http://www.w3.org/1999/02/22-rdf-syntax-ns#"
   xmlns:svg="http://www.w3.org/2000/svg"
   xmlns="http://www.w3.org/2000/svg"
   xmlns:sodipodi="http://sodipodi.sourceforge.net/DTD/sodipodi-0.dtd"
   xmlns:inkscape="http://www.inkscape.org/namespaces/inkscape"
   width="500"
   height="150"
   id="svg2993"
   version="1.1"
   inkscape:version="0.48.2 r9819"
   sodipodi:docname="littleewoks_header.svg">
  <defs
     id="defs2995" />
  <sodipodi:namedview
     id="base"
     pagecolor="#ffffff"
     bordercolor="#666666"
     borderopacity="1.0"
     inkscape:pageopacity="0.0"
     inkscape:pageshadow="2"
     inkscape:zoom="2.1213203"
     inkscape:cx="221.43435"
     inkscape:cy="98.98504"
     inkscape:document-units="px"
     inkscape:current-layer="layer6"
     showgrid="false"
     inkscape:window-width="1366"
     inkscape:window-height="712"
     inkscape:window-x="-4"
     inkscape:window-y="-4"
     inkscape:window-maximized="1" />
  <metadata
     id="metadata2998">
    <rdf:RDF>
      <cc:Work
         rdf:about="">
        <dc:format>image/svg+xml</dc:format>
        <dc:type
           rdf:resource="http://purl.org/dc/dcmitype/StillImage" />
        <dc:title></dc:title>
      </cc:Work>
    </rdf:RDF>
  </metadata>
  <g
     id="layer1"
     inkscape:label="Swing Set"
     inkscape:groupmode="layer"
     transform="translate(0,60)"
     style="display:inline">
    <text
       xml:space="preserve"
       style="font-size:48px;font-style:normal;font-variant:normal;font-weight:normal;font-stretch:normal;line-height:125%;letter-spacing:0px;word-spacing:0px;fill:#000000;fill-opacity:1;stroke:none;font-family:Comic Sans MS;-inkscape-font-specification:Comic Sans MS"
       x="23.570227"
       y="10.332636"
       id="text3001"
       sodipodi:linespacing="125%"><tspan
         sodipodi:role="line"
         id="tspan3003"
         x="23.570227"
         y="10.332636"
         style="line-height:0%;letter-spacing:0px;fill:#483578;fill-opacity:1" /></text>
    <path
       style="fill:none;stroke:#000000;stroke-width:1.08785927;stroke-linecap:butt;stroke-linejoin:miter;stroke-miterlimit:4;stroke-opacity:1;stroke-dasharray:none"
       d="m 82.783946,-4.6447936 0,17.9534796 11.894341,-0.619085 0,-17.9534808"
       id="path3871"
       inkscape:connector-curvature="0" />
    <path
       style="fill:none;stroke:#000000;stroke-width:2.80048013;stroke-linecap:butt;stroke-linejoin:miter;stroke-miterlimit:4;stroke-opacity:1;stroke-dasharray:none"
       d="M 72.349654,-4.6447936 61.880081,20.737713"
       id="path3873"
       inkscape:connector-curvature="0" />
    <path
       style="fill:none;stroke:#000000;stroke-width:2.80048013;stroke-linecap:butt;stroke-linejoin:miter;stroke-miterlimit:4;stroke-opacity:1;stroke-dasharray:none"
       d="M 126.44245,-5.8829659 137.49366,21.975883"
       id="path3875"
       inkscape:connector-curvature="0"
       inkscape:transform-center-x="-6.8828384" />
    <path
       sodipodi:type="arc"
       style="fill:none;stroke-width:2.20000005;stroke-miterlimit:4;stroke-dasharray:none"
       id="path3877"
       sodipodi:cx="100.17346"
       sodipodi:cy="102.62385"
       sodipodi:rx="6.3639612"
       sodipodi:ry="6.3639612"
       d="m 106.53742,102.62385 a 6.3639612,6.3639612 0 1 1 -12.727919,0 6.3639612,6.3639612 0 1 1 12.727919,0 z"
       transform="matrix(1.2338511,0,0,1.3132786,-17.223361,-71.009554)" />
    <path
       sodipodi:type="arc"
       style="fill:none;stroke:#000000;stroke-width:2.20000005;stroke-miterlimit:4;stroke-opacity:1;stroke-dasharray:none"
       id="path3889"
       sodipodi:cx="121.38667"
       sodipodi:cy="113.23045"
       sodipodi:rx="9.1923885"
       sodipodi:ry="9.8994951"
       d="m 130.57906,113.23045 a 9.1923885,9.8994951 0 1 1 -18.38478,0 9.1923885,9.8994951 0 1 1 18.38478,0 z"
       transform="matrix(0.25551102,0,0,0.34633919,78.122948,-35.348502)" />
    <path
       sodipodi:type="arc"
       style="fill:none;stroke:#000000;stroke-width:2.20000005;stroke-miterlimit:4;stroke-opacity:1;stroke-dasharray:none"
       id="path3889-5"
       sodipodi:cx="121.38667"
       sodipodi:cy="113.23045"
       sodipodi:rx="9.1923885"
       sodipodi:ry="9.8994951"
       d="m 130.57906,113.23045 a 9.1923885,9.8994951 0 1 1 -18.38478,0 9.1923885,9.8994951 0 1 1 18.38478,0 z"
       transform="matrix(0.25551102,0,0,0.34633919,86.702172,-35.193739)" />
    <path
       style="fill:none;stroke:#000000;stroke-width:1.27294552px;stroke-linecap:butt;stroke-linejoin:miter;stroke-opacity:1"
       d="m 108.70235,-0.00165216 -0.29083,-5.57176994 0.29083,0.6190861"
       id="path3917"
       inkscape:connector-curvature="0" />
    <path
       style="fill:none;stroke:#000000;stroke-width:1.27294552px;stroke-linecap:butt;stroke-linejoin:miter;stroke-opacity:1"
       d="M 117.71781,-0.31119455 117.42699,-8.0497641"
       id="path3919"
       inkscape:connector-curvature="0" />
    <path
       style="fill:none;stroke:#000000;stroke-width:2.54589105;stroke-linecap:butt;stroke-linejoin:miter;stroke-miterlimit:4;stroke-opacity:1;stroke-dasharray:none"
       d="m 114.80959,-8.0497641 8.143,0"
       id="path3921"
       inkscape:connector-curvature="0" />
    <path
       style="fill:none;stroke:#000000;stroke-width:2.54589105;stroke-linecap:butt;stroke-linejoin:miter;stroke-miterlimit:4;stroke-opacity:1;stroke-dasharray:none"
       d="m 86.018264,-7.7402215 6.107253,0.3095435"
       id="path3923"
       inkscape:connector-curvature="0" />
  </g>
  <g
     inkscape:groupmode="layer"
     id="layer6"
     inkscape:label="grass">
    <path
       style="fill:#008000;fill-opacity:1;fill-rule:evenodd;stroke:none"
       id="path4006"
       d="m 5.1231073,72.887532 c 0.9891269,0.06394 1.9384876,-0.202346 2.8791105,-0.485428 1.1777616,-0.407404 2.3943162,-0.685509 3.6067472,-0.95041 1.358828,-0.272277 2.693838,-0.640126 4.063037,-0.858558 1.016687,-0.127927 2.039704,-0.164468 3.062396,-0.177793 0.915075,-0.0059 1.830143,0.0063 2.74522,0.0095 1.048512,9.83e-4 2.097009,0.0034 3.145526,0.0043 1.389421,-0.0034 2.778828,0.014 4.168192,0.02608 1.91429,0.01183 3.828652,-9e-6 5.742936,-0.0096 1.329451,-0.0031 2.658905,-0.0086 3.98834,-0.01608 1.309335,0.04199 2.615053,0.185368 3.925437,0.246908 1.069312,0.06833 2.142509,-0.0098 3.204823,0.15982 0.05579,0.0089 1.576066,0.310721 1.627718,0.320956 1.266549,0.242249 2.544755,0.389747 3.80164,0.687818 1.467483,0.483761 2.86459,1.148845 4.260168,1.822545 1.532159,0.867217 3.04418,1.773147 4.586585,2.619531 1.052482,0.598657 2.127749,1.152725 3.246107,1.596905 1.161378,0.626537 2.412114,0.979749 3.659306,1.344817 1.064671,0.345398 2.134199,0.656151 3.187845,1.039744 1.508898,0.57889 3.041292,1.096118 4.588373,1.548041 1.836008,0.442544 3.705318,0.709187 5.579891,0.876883 2.140961,0.131464 4.285432,0.161104 6.428008,0.259273 1.821099,0.08927 3.643502,0.139708 5.466261,0.166764 1.456881,0.01183 2.913834,0.01478 4.370755,0.01786 1.572755,0.0022 3.145509,-0.0029 4.718271,-0.0019 1.75591,-0.0051 3.51178,0.01067 5.26769,0.01383 1.6209,0.0065 3.24169,-0.0171 4.86254,-0.02486 1.37955,-0.008 2.75904,0.0096 4.13854,0.01654 2.28093,-0.05175 4.55036,0.231838 6.82281,0.40265 2.23003,0.167008 4.4659,0.200954 6.70054,0.217799 1.67491,0.0067 3.34987,0.0026 5.02476,-0.0081 1.47123,-0.01605 2.94244,0.0012 4.41365,0.01056 2.14804,0.07821 4.28329,0.04442 6.40305,-0.350554 1.33458,-0.307665 2.60539,-0.816874 3.86492,-1.366525 0.5604,-0.289325 1.15696,-0.506332 1.715,-0.80009 0.53444,-0.281339 1.01753,-0.602394 1.5711,-0.848654 1.45758,-0.663208 2.95941,-1.181312 4.46485,-1.704134 1.35288,-0.467748 2.71022,-0.919799 4.0577,-1.40511 1.32895,-0.543686 2.67726,-1.033445 4.00281,-1.58485 1.33852,-0.664481 2.7494,-1.154612 4.18345,-1.522582 1.70128,-0.330437 3.4424,-0.30409 5.16453,-0.437441 2.53443,-0.248022 5.058,-0.59869 7.58548,-0.91359 1.19103,-0.171228 2.38953,-0.230445 3.58994,-0.238483 1.47029,7.98e-4 2.94066,-0.0089 4.40925,0.07016 2.57855,0.03936 5.08071,0.719284 7.59139,1.268771 3.99465,0.915751 8.02274,1.633452 12.01007,2.585608 3.80882,1.038976 7.21443,3.173965 10.78529,4.852913 1.81044,0.922417 3.78646,1.291011 5.7495,1.633767 2.56522,0.829527 5.21319,1.190842 7.86452,1.531242 2.12383,0.260291 4.25865,0.390833 6.39041,0.55233 1.81775,0.244426 3.60501,0.679562 5.41887,0.954421 0.90653,0.140756 1.82201,0.167742 2.7364,0.177328 1.19467,0.01482 2.38942,0.01169 3.58412,0.0035 0.8565,0.0092 1.70261,0.0067 2.54959,-0.127388 0.94437,-0.360622 1.8556,-0.801076 2.78621,-1.198369 0.97819,-0.505141 1.87459,-0.851375 2.95131,-1.021541 1.27292,-0.08222 2.51972,-0.429769 3.7357,-0.825477 0.83778,-0.282228 1.69732,-0.492587 2.52841,-0.796326 1.07515,-0.517313 2.27511,-0.521098 3.43227,-0.5872 1.38878,-0.07928 2.77956,-0.09241 4.16997,-0.09184 1.32055,0.0039 2.64115,-9.93e-4 3.9617,0.0053 1.79852,0.01732 3.597,0.02621 5.39558,0.01462 1.33167,-0.0126 2.66329,-0.01929 3.995,-0.01443 1.35015,0.0049 2.70033,-2.78e-4 4.05049,0.002 1.12085,-0.0022 2.24168,-0.01016 3.36252,-0.01155 1.2681,-0.04091 2.52969,0.07123 3.79306,0.166322 0.97215,0.06103 0.49139,0.0344 1.44224,0.08035 0,0 -3.43106,2.625175 -3.43106,2.625175 l 0,0 c -0.94906,-0.05642 -0.46725,-0.02715 -1.44552,-0.08792 -1.26986,-0.09066 -2.53786,-0.160214 -3.81125,-0.114032 -1.11083,-0.0016 -2.22166,-0.0094 -3.33249,-0.01155 -1.35187,0.0022 -2.70374,-0.0029 -4.0556,0.002 -1.31925,0.0049 -2.63842,-0.0015 -3.95761,-0.01453 -1.80993,-0.01221 -3.61973,-0.0026 -5.42962,0.01116 -1.32062,0.0034 -2.64129,-0.0079 -3.96193,-0.0034 -1.37746,0.0076 -2.75587,0.011 -4.13147,0.09687 -1.1767,0.09656 -2.34331,0.223653 -3.43847,0.727386 -0.83435,0.252939 -1.66569,0.516142 -2.50239,0.760421 -1.24017,0.351824 -2.49005,0.66588 -3.77052,0.794921 -1.01531,0.223452 -1.95113,0.651651 -2.89621,1.098265 -0.9412,0.418153 -1.87852,0.887544 -2.87765,1.123831 -0.84749,0.09884 -1.69777,0.05558 -2.54905,0.0558 -1.20279,-0.0031 -2.40549,0.0052 -3.60825,0.0062 -0.91857,-0.01799 -1.83502,-0.06694 -2.73961,-0.254391 -1.77701,-0.330535 -3.5362,-0.786826 -5.33442,-0.970373 -2.12249,-0.15486 -4.24675,-0.291118 -6.35524,-0.607872 -1.39561,-0.189104 -2.79437,-0.356225 -4.17883,-0.627253 -1.48076,-0.28988 -1.14977,-0.261552 -2.56233,-0.606912 -0.39316,-0.09612 -0.78852,-0.181682 -1.18277,-0.272523 -1.98687,-0.338486 -3.96376,-0.758271 -5.76198,-1.770842 -3.4607,-1.802533 -6.81529,-3.934343 -10.60805,-4.868469 -4.0105,-0.934196 -8.05594,-1.666635 -12.08171,-2.521545 -2.53565,-0.520967 -5.07182,-1.101713 -7.66664,-1.126514 -1.48738,-0.03756 -2.97505,-0.01506 -4.46271,-2.67e-4 -1.16975,0.02849 -2.33823,0.0901 -3.5023,0.221919 -2.51767,0.267145 -5.0282,0.603137 -7.54628,0.866553 -1.74142,0.157421 -3.50921,0.161964 -5.21933,0.576664 -1.40835,0.404941 -2.79294,0.888459 -4.12095,1.537905 -1.34436,0.543589 -2.69266,1.077211 -4.04573,1.595864 -1.33694,0.475857 -2.68859,0.902629 -4.02693,1.373997 -1.51463,0.522874 -3.0135,1.083548 -4.4708,1.770632 -1.09101,0.559089 -2.15353,1.181446 -3.29263,1.631092 -1.26456,0.529677 -2.54506,1.020535 -3.89125,1.259923 -2.13449,0.315055 -4.27801,0.28772 -6.42914,0.284948 -1.48265,0.01 -2.96528,0.0284 -4.44797,0.01644 -1.66092,-0.0078 -3.32188,-0.0072 -4.98269,-0.03119 -2.23254,-0.03775 -4.46585,-0.0923 -6.69379,-0.25813 -2.27798,-0.19818 -4.55744,-0.430672 -6.8462,-0.343174 -1.39377,0.0068 -2.7875,0.02437 -4.1813,0.01653 -1.59942,-0.0078 -3.19876,-0.03159 -4.79823,-0.02485 -1.76813,0.0034 -3.536228,0.01887 -5.304359,0.01466 -1.572889,0.002 -3.145758,-0.0015 -4.718637,0.002 -1.459585,0.003 -2.919305,0.0096 -4.378694,-0.02117 -1.802342,-0.03866 -3.602414,-0.132108 -5.402672,-0.230075 -2.163579,-0.10101 -4.329937,-0.07134 -6.490423,-0.238013 -1.885579,-0.20072 -3.768902,-0.476156 -5.612855,-0.949803 -1.56286,-0.467978 -3.122173,-0.956362 -4.655401,-1.525335 -1.053312,-0.357056 -2.117502,-0.672897 -3.172149,-1.025167 -1.256433,-0.376585 -2.499424,-0.788242 -3.687331,-1.373405 -1.123679,-0.45623 -2.194647,-1.042059 -3.244856,-1.664255 -1.520846,-0.866747 -3.016309,-1.784188 -4.558377,-2.608536 -1.381558,-0.668927 -2.786269,-1.293111 -4.25723,-1.706542 -1.245713,-0.266965 -2.50313,-0.456754 -3.751299,-0.709611 -0.417473,-0.07959 -1.187988,-0.233394 -1.612909,-0.287265 -1.060157,-0.134408 -2.13095,-0.06382 -3.194594,-0.138282 -1.31721,-0.06603 -2.632654,-0.18782 -3.951207,-0.201729 -1.315582,-0.0074 -2.63118,-0.01287 -3.946777,-0.01606 -1.9059,-0.0098 -3.811878,-0.0215 -5.717785,-0.0096 -1.41177,0.01208 -2.823589,0.02938 -4.235415,0.02572 -1.049987,3.67e-4 -2.099974,0.0019 -3.149953,-0.0019 -0.918502,-6.7e-4 -1.836986,9.74e-4 -2.755477,0.007 -1.002041,0.0156 -2.006243,0.05265 -2.999294,0.206876 -1.356772,0.229077 -2.6840769,0.599115 -4.0339002,0.866804 -1.2186971,0.284104 -2.432853,0.592811 -3.622411,0.996047 -0.9775584,0.274865 -1.9737888,0.432918 -2.9879257,0.419839 0,0 3.4909082,-2.699565 3.4909082,-2.699565 z"
       inkscape:connector-curvature="0" />
    <path
       style="fill:#008000;fill-opacity:1;fill-rule:evenodd;stroke:none"
       id="path4008"
       d="m 299.4185,81.381303 c 1.45216,-0.367049 2.94141,-0.521492 4.42734,-0.629907 1.35321,-0.09242 2.7098,-0.106936 4.06537,-0.109036 1.4179,0.02592 2.83637,-0.07149 4.24648,-0.224907 1.67549,-0.123815 3.31957,-0.48817 4.98072,-0.735573 1.61004,-0.20984 3.2343,-0.242082 4.85443,-0.254265 1.58656,-0.01342 3.17303,-0.01678 4.75961,-0.01056 1.70991,0.008 3.41981,0.0081 5.12973,0.0083 1.74506,0.0012 3.49013,-0.0015 5.2352,0.0028 2.26067,-0.046 4.51309,0.243467 6.7624,0.457807 3.06047,0.204515 6.10442,0.597965 9.16147,0.848157 3.01027,0.189172 6.0158,0.451805 9.02548,0.650023 2.62264,0.168468 5.25013,0.198147 7.87654,0.230247 3.30201,-0.09255 6.58465,0.236872 9.87112,0.515642 3.29644,0.328217 6.59329,0.657039 9.86913,1.173185 2.49648,0.441889 4.96909,1.037811 7.41095,1.74312 2.55777,0.855532 5.16403,1.521684 7.68804,2.4886 2.52852,1.023365 4.91787,2.38342 7.26147,3.811217 2.44475,1.601539 4.99669,2.988795 7.62899,4.202176 1.4678,0.671529 2.98243,1.186426 4.56597,1.415984 0.78453,0.08816 1.57369,0.09794 2.36166,0.102937 0,0 -3.45201,2.659434 -3.45201,2.659434 l 0,0 c -0.79545,-0.02538 -1.59196,-0.05597 -2.38218,-0.163852 -1.57559,-0.297038 -3.08103,-0.868789 -4.53289,-1.58227 -2.60832,-1.270764 -5.13853,-2.705905 -7.6019,-4.271257 -2.34621,-1.396718 -4.74456,-2.710909 -7.26382,-3.720719 -2.51621,-0.961402 -5.10673,-1.653277 -7.66933,-2.457522 -2.42628,-0.678282 -4.87557,-1.274674 -7.3479,-1.730301 -3.25541,-0.527047 -6.53169,-0.871751 -9.81118,-1.180973 -3.30259,-0.290053 -6.60452,-0.559349 -9.9221,-0.438087 -2.62226,-0.01685 -5.24468,-0.08466 -7.86167,-0.271709 -3.01182,-0.217211 -6.02201,-0.457149 -9.03524,-0.651731 -3.05433,-0.283351 -6.10043,-0.659345 -9.16202,-0.848959 -2.27158,-0.1913 -4.54741,-0.408515 -6.8279,-0.361996 -1.74721,0.0042 -3.4944,0.0017 -5.24162,0.002 -1.71403,-8.35e-4 -3.42804,-0.0023 -5.14206,6.62e-4 -1.58138,0.0019 -3.16278,-0.01067 -4.74407,0.0068 -1.61341,0.03518 -3.23085,0.06962 -4.83188,0.306836 -1.66271,0.252296 -3.3135,0.59596 -4.99161,0.719613 -1.42905,0.138281 -2.86249,0.24462 -4.29845,0.213772 -1.34009,0.0079 -2.68115,0.01396 -4.01876,0.112245 -1.49289,0.127967 -3.00915,0.270588 -4.43296,0.796237 0,0 3.38945,-2.824255 3.38945,-2.824255 z"
       inkscape:connector-curvature="0" />
    <path
       sodipodi:type="arc"
       style="fill:#000080;fill-opacity:1;fill-rule:evenodd;stroke:none"
       id="path4020"
       sodipodi:cx="118.79394"
       sodipodi:cy="105.09872"
       sodipodi:rx="9.8994951"
       sodipodi:ry="14.967093"
       d="m 128.69343,105.09872 a 9.8994951,14.967093 0 1 1 -19.79899,0 9.8994951,14.967093 0 1 1 19.79899,0 z"
       transform="matrix(1.086964,0,0,1.1168039,54.027899,-57.066772)" />
    <path
       sodipodi:type="arc"
       style="fill:#ffccaa;fill-opacity:1;fill-rule:evenodd;stroke:none"
       id="path4022"
       sodipodi:cx="162.87027"
       sodipodi:cy="42.166214"
       sodipodi:rx="5.4211521"
       sodipodi:ry="6.481812"
       d="m 168.29142,42.166214 a 5.4211521,6.481812 0 1 1 -10.8423,0 5.4211521,6.481812 0 1 1 10.8423,0 z"
       transform="matrix(1.2338511,0,0,1.3132786,-19.259111,-19.367209)" />
    <path
       style="fill:none;stroke:#000000;stroke-width:1.27294552px;stroke-linecap:butt;stroke-linejoin:miter;stroke-opacity:1"
       d="m 178.79031,75.785029 -5.81642,13.619882"
       id="path4024"
       inkscape:connector-curvature="0" />
    <path
       style="fill:none;stroke:#000000;stroke-width:1.27294552px;stroke-linecap:butt;stroke-linejoin:miter;stroke-opacity:1"
       d="m 187.80578,75.165944 4.36232,14.85805"
       id="path4028"
       inkscape:connector-curvature="0" />
    <path
       style="fill:none;stroke:#000000;stroke-width:1.27294552px;stroke-linecap:butt;stroke-linejoin:miter;stroke-opacity:1"
       d="m 172.68307,54.117035 -5.52562,-5.262226 0.29084,-2.476343"
       id="path4030"
       inkscape:connector-curvature="0" />
    <path
       style="fill:none;stroke:#000000;stroke-width:1.27294552px;stroke-linecap:butt;stroke-linejoin:miter;stroke-opacity:1"
       d="m 166.72326,48.744627 -1.59372,-1.367999"
       id="path4032"
       inkscape:connector-curvature="0" />
    <path
       style="fill:none;stroke:#000000;stroke-width:1.27294552px;stroke-linecap:butt;stroke-linejoin:miter;stroke-opacity:1"
       d="m 166.31198,49.182385 -1.85077,0.21888"
       id="path4034"
       inkscape:connector-curvature="0" />
    <path
       style="fill:none;stroke:#000000;stroke-width:1.27294552px;stroke-linecap:butt;stroke-linejoin:miter;stroke-opacity:1"
       d="m 165.59224,50.714545 1.0282,-1.149119 0.30846,-0.383041"
       id="path4036"
       inkscape:connector-curvature="0" />
    <path
       sodipodi:type="arc"
       style="fill:#ff0000;fill-opacity:1;fill-rule:evenodd;stroke:none"
       id="path4040"
       sodipodi:cx="184.41667"
       sodipodi:cy="59.916668"
       sodipodi:rx="6.9166665"
       sodipodi:ry="8.25"
       d="m 191.33334,59.916668 a 6.9166665,8.25 0 1 1 -13.83333,0 6.9166665,8.25 0 1 1 13.83333,0 z"
       transform="matrix(1.2338511,0,0,1.3132786,-17.223361,-11.009554)" />
    <path
       sodipodi:type="arc"
       style="fill:#ffccaa;fill-opacity:1;fill-rule:evenodd;stroke:none"
       id="path4042"
       sodipodi:cx="188.08333"
       sodipodi:cy="49.75"
       sodipodi:rx="4.75"
       sodipodi:ry="4.9166665"
       d="m 192.83333,49.75 a 4.75,4.9166665 0 1 1 -9.5,0 4.75,4.9166665 0 1 1 9.5,0 z"
       transform="matrix(1.2338511,0,0,1.3132786,-21.953123,-14.94939)" />
    <path
       style="fill:none;stroke:#000000;stroke-width:1.27294552px;stroke-linecap:butt;stroke-linejoin:miter;stroke-opacity:1"
       d="m 193.14824,54.216621 6.3749,3.939836"
       id="path4044"
       inkscape:connector-curvature="0" />
    <path
       style="fill:none;stroke:#000000;stroke-width:1.27294552px;stroke-linecap:butt;stroke-linejoin:miter;stroke-opacity:1"
       d="m 203.2247,61.877413 -3.08463,-3.064316"
       id="path4046"
       inkscape:connector-curvature="0" />
    <path
       style="fill:none;stroke:#000000;stroke-width:1.27294552px;stroke-linecap:butt;stroke-linejoin:miter;stroke-opacity:1"
       d="m 218.03091,62.534053 2.67333,-1.094398"
       id="path4048"
       inkscape:connector-curvature="0" />
    <path
       style="fill:none;stroke:#000000;stroke-width:1.27294552px;stroke-linecap:butt;stroke-linejoin:miter;stroke-opacity:1"
       d="m 205.89803,76.980118 -2.4677,7.879672"
       id="path4050"
       inkscape:connector-curvature="0" />
    <path
       style="fill:none;stroke:#000000;stroke-width:1.27294552px;stroke-linecap:butt;stroke-linejoin:miter;stroke-opacity:1"
       d="m 215.5632,76.54236 2.87899,8.53631"
       id="path4052"
       inkscape:connector-curvature="0" />
    <path
       style="fill:#000000;stroke:#000000;stroke-width:1.27294552px;stroke-linecap:butt;stroke-linejoin:miter;stroke-opacity:1"
       d="M 220.45049,61.081748 z"
       id="path4054"
       inkscape:connector-curvature="0" />
    <path
       style="fill:none;stroke:#000000;stroke-width:1.27294552px;stroke-linecap:butt;stroke-linejoin:miter;stroke-opacity:1"
       d="m 220.23238,60.926977 -0.0727,-1.857258"
       id="path4056"
       inkscape:connector-curvature="0" />
    <path
       style="fill:none;stroke:#000000;stroke-width:1.27294552px;stroke-linecap:butt;stroke-linejoin:miter;stroke-opacity:1"
       d="m 220.5959,60.772204 0.87246,-0.696471"
       id="path4058"
       inkscape:connector-curvature="0" />
    <path
       style="fill:none;stroke:#000000;stroke-width:1.41022599px;stroke-linecap:butt;stroke-linejoin:miter;stroke-opacity:1"
       d="m 220.61607,61.180605 1.30485,0.343983"
       id="path4060"
       inkscape:connector-curvature="0" />
    <path
       style="fill:none;stroke:#000000;stroke-width:1.27294552px;stroke-linecap:butt;stroke-linejoin:miter;stroke-opacity:1"
       d="m 220.5232,62.087761 0.72705,0.851243"
       id="path4062"
       inkscape:connector-curvature="0" />
    <path
       style="fill:none;stroke:#000000;stroke-width:1.27294552px;stroke-linecap:butt;stroke-linejoin:miter;stroke-opacity:1"
       d="m 199.65676,57.522006 1.23599,-0.07739"
       id="path4064"
       inkscape:connector-curvature="0" />
    <path
       style="fill:none;stroke:#000000;stroke-width:1.27294552px;stroke-linecap:butt;stroke-linejoin:miter;stroke-opacity:1"
       d="m 199.22052,58.218477 1.09058,0.5417"
       id="path4066"
       inkscape:connector-curvature="0" />
    <path
       style="fill:none;stroke:#000000;stroke-width:1.27294552px;stroke-linecap:butt;stroke-linejoin:miter;stroke-opacity:1"
       d="m 198.78429,58.52802 0.36353,1.625099"
       id="path4068"
       inkscape:connector-curvature="0" />
    <path
       style="fill:none;stroke:#000000;stroke-width:1.27294552px;stroke-linecap:butt;stroke-linejoin:miter;stroke-opacity:1"
       d="m 200.82003,58.52802 -0.21812,-0.5417"
       id="path4070"
       inkscape:connector-curvature="0" />
    <path
       style="fill:none;stroke:#000000;stroke-width:1.27294552px;stroke-linecap:butt;stroke-linejoin:miter;stroke-opacity:1"
       d="m 200.09298,59.147106 -0.58163,0.15477"
       id="path4072"
       inkscape:connector-curvature="0" />
    <text
       xml:space="preserve"
       style="font-size:30.5506916px;font-style:normal;font-variant:normal;font-weight:normal;font-stretch:normal;line-height:125%;letter-spacing:0px;word-spacing:0px;fill:#483578;fill-opacity:1;stroke:none;font-family:Comic Sans MS;-inkscape-font-specification:Comic Sans MS"
       x="14.634821"
       y="134.66492"
       id="text4074"
       sodipodi:linespacing="125%"
       transform="scale(0.96928819,1.0316849)"><tspan
         sodipodi:role="line"
         id="tspan4076"
         x="14.634821"
         y="134.66492">Caring for life's most precious gift </tspan></text>
    <text
       xml:space="preserve"
       style="font-size:28px;font-style:normal;font-variant:normal;font-weight:normal;font-stretch:normal;line-height:125%;letter-spacing:0px;word-spacing:0px;fill:#000000;fill-opacity:1;stroke:none;font-family:Comic Sans MS;-inkscape-font-specification:Comic Sans MS"
       x="174.41966"
       y="105.21657"
       id="text4078"
       sodipodi:linespacing="125%"><tspan
         sodipodi:role="line"
         id="tspan4080" /></text>
  </g>
  <g
     inkscape:groupmode="layer"
     id="layer4"
     inkscape:label="Sun">
    <path
       sodipodi:type="arc"
       style="fill:#ffff00;fill-opacity:1;fill-rule:evenodd;stroke:none"
       id="path3934"
       sodipodi:cx="337.28995"
       sodipodi:cy="45.230347"
       sodipodi:rx="16.499159"
       sodipodi:ry="16.381308"
       d="m 353.78911,45.230347 a 16.499159,16.381308 0 1 1 -32.99832,0 16.499159,16.381308 0 1 1 32.99832,0 z"
       transform="matrix(1.2338511,0,0,1.3132786,-57.938367,-24.938979)" />
    <path
       style="fill:none;stroke:#000000;stroke-width:1.27294552px;stroke-linecap:butt;stroke-linejoin:miter;stroke-opacity:1"
       d="M 344.26773,33.068128"
       id="path3962"
       inkscape:connector-curvature="0" />
    <path
       style="fill:none;stroke:#ffff00;stroke-width:1.27294552px;stroke-linecap:butt;stroke-linejoin:miter;stroke-opacity:1"
       d="m 339.03295,40.806697 -12.21451,6.190854"
       id="path3964"
       inkscape:connector-curvature="0" />
    <path
       style="fill:none;stroke:#ffff00;stroke-width:1.27294552px;stroke-linecap:butt;stroke-linejoin:miter;stroke-opacity:1"
       d="m 338.45131,28.73453 -12.2145,-4.024057"
       id="path3966"
       inkscape:connector-curvature="0" />
    <path
       style="fill:none;stroke:#ffff00;stroke-width:1.27294552px;stroke-linecap:butt;stroke-linejoin:miter;stroke-opacity:1"
       d="M 344.55856,19.448247 334.67064,7.9951643"
       id="path3968"
       inkscape:connector-curvature="0" />
    <path
       style="fill:none;stroke:#ffff00;stroke-width:1.27294552px;stroke-linecap:butt;stroke-linejoin:miter;stroke-opacity:1"
       d="M 357.93634,13.566934 357.64552,2.1138526"
       id="path3970"
       inkscape:connector-curvature="0" />
    <path
       style="fill:none;stroke:#ffff00;stroke-width:1.27294552px;stroke-linecap:butt;stroke-linejoin:miter;stroke-opacity:1"
       d="m 358.80881,55.355207 0,13.000795"
       id="path3972"
       inkscape:connector-curvature="0" />
    <path
       style="fill:none;stroke:#ffff00;stroke-width:1.27294552px;stroke-linecap:butt;stroke-linejoin:miter;stroke-opacity:1"
       d="m 346.59431,52.569322 -6.39808,5.881312"
       id="path3974"
       inkscape:connector-curvature="0" />
    <path
       style="fill:none;stroke:#ffff00;stroke-width:1.27294552px;stroke-linecap:butt;stroke-linejoin:miter;stroke-opacity:1"
       d="m 369.27838,15.42419 6.6889,-8.3576538"
       id="path3976"
       inkscape:connector-curvature="0" />
    <path
       style="fill:none;stroke:#ffff00;stroke-width:1.27294552px;stroke-linecap:butt;stroke-linejoin:miter;stroke-opacity:1"
       d="m 376.83974,24.400931 9.30629,-7.429026"
       id="path3978"
       inkscape:connector-curvature="0" />
    <path
       style="fill:none;stroke:#ffff00;stroke-width:1.27294552px;stroke-linecap:butt;stroke-linejoin:miter;stroke-opacity:1"
       d="m 379.16631,35.854012 11.63285,-2.166798"
       id="path3980"
       inkscape:connector-curvature="0" />
    <path
       style="fill:none;stroke:#ffff00;stroke-width:1.27294552px;stroke-linecap:butt;stroke-linejoin:miter;stroke-opacity:1"
       d="m 375.67647,44.830752 9.59709,8.357654"
       id="path3982"
       inkscape:connector-curvature="0" />
    <path
       style="fill:none;stroke:#ffff00;stroke-width:1.27294552px;stroke-linecap:butt;stroke-linejoin:miter;stroke-opacity:1"
       d="m 368.11511,52.25978 9.88792,9.286283"
       id="path3984"
       inkscape:connector-curvature="0" />
  </g>
  <g
     inkscape:groupmode="layer"
     id="layer3"
     inkscape:label="Little Ewoks"
     style="display:inline">
    <text
       xml:space="preserve"
       style="font-size:61.10138321px;font-style:normal;font-variant:normal;font-weight:normal;font-stretch:normal;line-height:125%;letter-spacing:0px;word-spacing:0px;fill:#483564;fill-opacity:1;stroke:none;font-family:Comic Sans MS;-inkscape-font-specification:Comic Sans MS"
       x="12.234529"
       y="79.158211"
       id="text3929"
       sodipodi:linespacing="125%"
       transform="scale(0.96928819,1.0316849)"><tspan
         sodipodi:role="line"
         id="tspan3931"
         x="12.234529"
         y="79.158211">Little   Ewoks</tspan></text>
  </g>
</svg>
